Coordinates
version=1
nRows=16
nColumns=36
inDegrees=yes

Units are S.I. units (second, meters, Newtons, ...)
If the header above contains a line with 'inDegrees', this indicates whether rotational values are in degrees (yes) or radians (no).

endheader
time	pelvis_tilt	pelvis_list	pelvis_rotation	pelvis_tx	pelvis_ty	pelvis_tz	hip_flexion_r	hip_adduction_r	hip_rotation_r	knee_angle_r	knee_angle_r_beta	ankle_angle_r	subtalar_angle_r	mtp_angle_r	hip_flexion_l	hip_adduction_l	hip_rotation_l	knee_angle_l	knee_angle_l_beta	ankle_angle_l	subtalar_angle_l	mtp_angle_l	lumbar_extension	lumbar_bending	lumbar_rotation	arm_flex_r	arm_add_r	arm_rot_r	elbow_flex_r	pro_sup_r	arm_flex_l	arm_add_l	arm_rot_l	elbow_flex_l	pro_sup_l
      2.76250000	    -12.02218456	     -0.64598708	      1.21503165	     -0.33315488	      1.24898636	     -0.04293213	     36.04961750	     -1.76656044	     -0.70333863	     47.25096223	      0.82468487	    -20.98292065	    -20.34781223	     -7.49999987	     28.30690051	     -3.13513902	      3.03720878	     51.63222092	      0.90115226	    -21.67770672	    -22.30815453	     -7.49999987	     -9.49208173	      2.12484272	     -2.16412191	    -32.69145481	    -19.46296679	      1.13463650	     69.30502587	     82.90232101	    -29.90950851	    -21.78124903	    -33.34267581	     99.28194488	     92.35284518
      2.76666670	    -12.14787265	     -0.59679419	      1.24243406	     -0.32640276	      1.24709275	     -0.04204455	     35.92896454	     -1.99130471	     -0.91969582	     45.54117709	      0.79484349	    -21.64025614	    -20.07715189	     -7.49999987	     28.20781446	     -3.20459014	      2.86213621	     50.21924967	      0.87649125	    -21.55173931	    -21.85527462	     -7.49999987	     -9.33175919	      2.19419856	     -2.15909827	    -34.62315601	    -19.63998291	      0.57732931	     71.38254062	     83.10931188	    -30.58823500	    -22.60261292	    -32.83305253	     99.12048396	     92.34704215
      2.77083330	    -12.23224891	     -0.64570342	      1.54359246	     -0.32259463	      1.25000807	     -0.03995489	     35.83132809	     -2.02276259	     -0.99799022	     43.73641295	      0.76334441	    -22.14119193	    -19.08102624	     -7.49999987	     28.30464653	     -3.47236175	      2.86429237	     48.38779469	      0.84452634	    -22.20098580	    -21.17225513	     -7.49999987	     -9.63302075	      2.24535397	     -2.39915101	    -35.86011137	    -19.44290973	      0.16519786	     72.60590204	     81.97040555	    -31.47691221	    -23.45287955	    -32.19643750	     99.12106997	     90.55630508
      2.77500000	    -12.27611992	     -0.66923433	      1.81738608	     -0.31485579	      1.24469237	     -0.04037123	     35.56431854	     -2.22752200	     -1.12960944	     42.04419119	      0.73380957	    -22.31788518	    -17.96762381	     -7.49999987	     28.25031480	     -3.68231686	      2.75452311	     46.79743492	      0.81676932	    -21.70324578	    -19.94654048	     -7.49999987	     -9.72687497	      2.18791559	     -2.71937060	    -36.85176643	    -19.52554845	      0.05023644	     73.60226688	     81.98985367	    -32.64403018	    -24.21685059	    -31.98009285	     99.27759342	     90.44670687
      2.77916670	    -12.09334414	     -0.58714033	      2.06578035	     -0.30628491	      1.24050237	     -0.04020711	     35.07441271	     -2.57095068	     -1.34013840	     40.59383779	      0.70849613	    -22.34557466	    -17.60532854	     -7.49999987	     28.04710164	     -3.79543186	      2.48919308	     45.61371497	      0.79610951	    -21.36179914	    -19.31308458	     -7.49999987	     -9.99696421	      2.05245907	     -2.88167546	    -37.77054819	    -19.74787834	      0.03937324	     74.75717194	     82.24375000	    -33.85769066	    -25.12365139	    -31.65327586	     99.76649628	     90.55452357
      2.78333330	    -12.12621901	     -0.63883143	      2.19680855	     -0.30215445	      1.23636393	     -0.04014379	     34.99719527	     -2.74944466	     -1.48360230	     39.23939947	      0.68485672	    -22.17229284	    -16.89133042	     -7.49999987	     28.30443748	     -4.11560725	      1.94760381	     44.69874921	      0.78014035	    -20.98449230	    -18.72799428	     -7.49999987	     -9.92182763	      2.08130049	     -2.73679043	    -38.68052828	    -19.99177271	     -0.02999945	     75.41556860	     82.17580716	    -35.08246977	    -25.81377634	    -31.57739913	    100.21462112	     90.37084930
      2.78750000	    -12.16392585	     -0.77025893	      2.14044221	     -0.29753798	      1.23270752	     -0.04148750	     35.17845319	     -2.82301795	     -1.39662504	     38.24290562	      0.66746462	    -22.10908543	    -15.74403952	     -7.49999987	     28.72597293	     -4.39474111	      1.38128579	     43.81632288	      0.76473910	    -20.66323392	    -18.35661962	     -7.49999987	    -10.20825795	      2.31150364	     -2.74740560	    -39.45206963	    -20.35213084	     -0.47893325	     76.82731952	     82.26338002	    -36.37695089	    -26.24473337	    -31.26951151	    101.36849130	     90.32923516
      2.79166670	    -12.19382717	     -0.88481355	      2.13541385	     -0.29349817	      1.23107136	     -0.03940492	     35.26699573	     -2.89468608	     -1.70422182	     36.85332734	      0.64321190	    -23.10272227	    -15.20874316	     -7.49999987	     28.99176569	     -4.72311924	      0.83293764	     42.52629677	      0.74222390	    -20.87068780	    -17.79611151	     -7.49999987	    -10.47467116	      2.59497997	     -2.65313792	    -39.37902856	    -20.61518308	     -0.79625105	     77.16999136	     82.54057780	    -37.42017830	    -26.73883232	    -30.98820163	    101.91774093	     90.60216797
      2.79583330	    -12.05199470	     -0.90027661	      2.18061274	     -0.28644553	      1.22965765	     -0.04119706	     35.07010497	     -3.15437522	     -2.16478903	     35.56491752	      0.62072491	    -24.19815248	    -15.08497315	     -7.49999987	     28.93468591	     -4.91075140	      0.51979242	     41.07117630	      0.71682725	    -21.19964266	    -17.36871184	     -7.49999987	    -10.90981939	      2.80857147	     -2.61458074	    -38.98901897	    -21.03431932	     -0.70188703	     76.98144130	     82.96202880	    -38.29318842	    -27.14478680	    -30.40003340	    102.30400961	     90.75612838
      2.80000000	    -12.04394561	     -0.80572236	      2.34897633	     -0.27927132	      1.22806007	     -0.03943039	     34.69644373	     -3.44958679	     -2.57472728	     33.80123392	      0.58994282	    -24.94287147	    -13.76409344	     -7.49999987	     28.67335363	     -5.00516982	      0.14626174	     39.10690062	      0.68254418	    -21.06323458	    -16.17958381	     -7.49999987	    -10.95263159	      2.69993200	     -2.90112308	    -39.71422024	    -21.20668841	     -0.81659818	     77.53894466	     83.16677260	    -39.54306011	    -27.66196237	    -30.31296453	    102.58026946	     90.93507053
      2.80416670	    -11.73772066	     -0.65732587	      2.57309531	     -0.27451068	      1.22386136	     -0.03762541	     34.19885754	     -3.71834440	     -2.64872902	     32.40458984	      0.56556679	    -25.12218249	    -12.66527834	     -7.49999987	     28.43101986	     -5.08621752	      0.03324266	     37.59804924	      0.65620975	    -20.55689617	    -14.77683939	     -7.49999987	    -11.52205439	      2.54230898	     -3.32040412	    -40.66026153	    -21.15393199	     -1.06777503	     78.75893016	     83.15429993	    -40.72257930	    -28.25052583	    -30.23155556	    103.04254607	     90.67913170
      2.80833330	    -11.51396629	     -0.45842103	      2.77921802	     -0.26870985	      1.21843209	     -0.03923936	     33.84344298	     -4.20284008	     -2.69117497	     31.01601158	      0.54133152	    -25.44379114	    -11.60211689	     -7.49999987	     28.33086251	     -5.02562475	     -0.21550809	     36.34681415	      0.63437158	    -19.82718720	    -14.11955111	     -7.49999987	    -11.92845722	      2.40292624	     -3.52799003	    -41.85280307	    -21.05774821	     -1.82779179	     80.45949364	     83.35882181	    -41.95497028	    -28.76081912	    -30.06078942	    103.44124635	     90.46321082
      2.81250000	    -11.50371373	     -0.34571528	      2.97212912	     -0.26208788	      1.21237703	     -0.03793912	     33.90682715	     -4.45950161	     -2.33122176	     30.27140143	      0.52833562	    -24.89865757	    -10.79713869	     -7.49999987	     28.54375632	     -5.07581481	     -0.28666055	     35.43536871	      0.61846386	    -18.78323565	    -13.38453660	     -7.49999987	    -11.90509228	      2.13417453	     -3.77415596	    -43.08236298	    -20.85805120	     -2.45938519	     81.63927983	     83.32419088	    -43.30254078	    -29.35932780	    -29.97211436	    103.85841980	     90.18245070
      2.81666670	    -11.13008385	     -0.30800495	      3.07831747	     -0.25685234	      1.21070634	     -0.03827815	     33.45751521	     -4.63961903	     -2.07482146	     29.15771627	      0.50889815	    -24.57207053	    -10.05127979	     -7.49999987	     28.08184030	     -5.16311754	     -0.64934911	     34.10846212	      0.59530497	    -18.09152806	    -12.98842153	     -7.49999987	    -12.39779892	      2.26265499	     -3.42870114	    -44.26965596	    -20.50399901	     -3.81709587	     83.12906134	     83.80598670	    -43.90933024	    -30.04530515	    -29.63022195	    103.94350865	     89.89513451
      2.82083330	    -11.12982856	     -0.22346032	      3.26689995	     -0.25042602	      1.20244374	     -0.03826054	     33.45001752	     -4.80789056	     -1.29283991	     28.31485186	      0.49418739	    -23.98433350	     -9.21986259	     -7.49999987	     28.13903178	     -5.14134348	     -0.86937914	     32.93375636	      0.57480248	    -17.55527741	    -12.99694549	     -7.49999987	    -12.19177444	      2.14154483	     -3.60105762	    -45.27586037	    -20.50700179	     -4.11016514	     83.64243911	     83.94998670	    -45.15331080	    -30.57836109	    -29.63218692	    103.97333127	     89.96773224
      2.82500000	    -10.99443910	      0.01603318	      3.02789161	     -0.24213529	      1.19893583	     -0.04080395	     33.35419672	     -5.21177925	     -0.70247864	     27.59129361	      0.48155892	    -22.85715702	     -7.98172029	     -7.49999987	     27.78157652	     -4.95218208	     -1.25486954	     31.62134132	      0.55189652	    -16.86045721	    -12.58722951	     -7.49999987	    -12.16473037	      1.93878479	     -3.54862320	    -46.15787646	    -20.71455918	     -4.72179961	     84.77211738	     84.01627199	    -46.42556589	    -30.65933055	    -29.33038665	    104.07153354	     89.87905564
